<svg xmlns="http://www.w3.org/2000/svg" viewBox="0 0 128 128" width="128" height="128">
  <defs>
    <linearGradient id="catkit-gradient" x1="0%" y1="0%" x2="100%" y2="100%">
      <stop offset="0%" style="stop-color:#5f67ee;stop-opacity:1" />
      <stop offset="50%" style="stop-color:#7c84f5;stop-opacity:1" />
      <stop offset="100%" style="stop-color:#989ef8;stop-opacity:1" />
    </linearGradient>
  </defs>

  <!-- 猫的头部 -->
  <circle cx="64" cy="70" r="38" fill="url(#catkit-gradient)" opacity="0.2"/>
  <circle cx="64" cy="70" r="32" fill="url(#catkit-gradient)"/>

  <!-- 左耳 -->
  <path d="M 38 50 L 30 30 L 48 45 Z" fill="url(#catkit-gradient)"/>

  <!-- 右耳 -->
  <path d="M 90 50 L 98 30 L 80 45 Z" fill="url(#catkit-gradient)"/>

  <!-- 眼睛 -->
  <ellipse cx="52" cy="68" rx="4" ry="6" fill="white"/>
  <ellipse cx="76" cy="68" rx="4" ry="6" fill="white"/>

  <!-- 瞳孔 -->
  <circle cx="52" cy="69" r="2" fill="#333"/>
  <circle cx="76" cy="69" r="2" fill="#333"/>

  <!-- 鼻子 -->
  <path d="M 64 76 L 62 80 L 66 80 Z" fill="#333"/>

  <!-- 嘴巴 -->
  <path d="M 64 80 Q 58 84 54 82 M 64 80 Q 70 84 74 82" stroke="#333" stroke-width="1.5" fill="none"/>

  <!-- 胡须 -->
  <line x1="40" y1="74" x2="28" y2="72" stroke="white" stroke-width="1.5"/>
  <line x1="40" y1="78" x2="28" y2="80" stroke="white" stroke-width="1.5"/>
  <line x1="88" y1="74" x2="100" y2="72" stroke="white" stroke-width="1.5"/>
  <line x1="88" y1="78" x2="100" y2="80" stroke="white" stroke-width="1.5"/>

  <!-- 工具箱 -->
  <rect x="48" y="95" width="32" height="20" rx="2" fill="#333"/>
  <rect x="50" y="97" width="28" height="16" rx="1" fill="#5f67ee" opacity="0.3"/>
  <line x1="64" y1="95" x2="64" y2="102" stroke="white" stroke-width="2"/>
  <circle cx="64" cy="102" r="2" fill="white"/>
</svg>

